HIERARCHY
ROOT Hips
{
	OFFSET 0.000000 0.000000 0.000000
	CHANNELS 6 Xposition Yposition Zposition Zrotation Yrotation Xrotation 
	JOINT LHipJoint
	{
		OFFSET 0.000000 0.000000 0.000000
		CHANNELS 3 Zrotation Yrotation Xrotation
		JOINT LeftUpLeg
		{
			OFFSET 1.363060 -1.794630 0.839290
			CHANNELS 3 Zrotation Yrotation Xrotation
			JOINT LeftLeg
			{
				OFFSET 2.448110 -6.726130 0.000000
				CHANNELS 3 Zrotation Yrotation Xrotation
				JOINT LeftFoot
				{
					OFFSET 2.562200 -7.039590 0.000000
					CHANNELS 3 Zrotation Yrotation Xrotation
					JOINT LeftToeBase
					{
						OFFSET 0.157640 -0.433110 2.322550
						CHANNELS 3 Zrotation Yrotation Xrotation
						End Site
						{
							OFFSET 0.000000 0.000000 0.000000
						}
					}
				}
			}
		}
	}
	JOINT RHipJoint
	{
		OFFSET 0.000000 0.000000 0.000000
		CHANNELS 3 Zrotation Yrotation Xrotation
		JOINT RightUpLeg
		{
			OFFSET -1.305520 -1.794630 0.839290
			CHANNELS 3 Zrotation Yrotation Xrotation
			JOINT RightLeg
			{
				OFFSET -2.542530 -6.985550 0.000000
				CHANNELS 3 Zrotation Yrotation Xrotation
				JOINT RightFoot
				{
					OFFSET -2.568260 -7.056230 0.000000
					CHANNELS 3 Zrotation Yrotation Xrotation
					JOINT RightToeBase
					{
						OFFSET -0.164730 -0.452590 2.363150
						CHANNELS 3 Zrotation Yrotation Xrotation
						End Site
						{
							OFFSET 0.000000 0.000000 0.000000
						}
					}
				}
			}
		}
	}
	JOINT LowerBack
	{
		OFFSET 0.000000 0.000000 0.000000
		CHANNELS 3 Zrotation Yrotation Xrotation
		JOINT Spine
		{
			OFFSET 0.028270 2.035590 -0.193380
			CHANNELS 3 Zrotation Yrotation Xrotation
			JOINT Spine1
			{
				OFFSET 0.056720 2.048850 -0.042750
				CHANNELS 3 Zrotation Yrotation Xrotation
				JOINT Neck
				{
					OFFSET 0.000000 0.000000 0.000000
					CHANNELS 3 Zrotation Yrotation Xrotation
					JOINT Neck1
					{
						OFFSET -0.054170 1.746240 0.172020
						CHANNELS 3 Zrotation Yrotation Xrotation
						JOINT Head
						{
							OFFSET 0.104070 1.761360 -0.123970
							CHANNELS 3 Zrotation Yrotation Xrotation
							End Site
							{
								OFFSET 0.000000 0.000000 0.000000
							}
						}
					}
				}
				JOINT LeftShoulder
				{
					OFFSET 0.000000 0.000000 0.000000
					CHANNELS 3 Zrotation Yrotation Xrotation
					JOINT LeftArm
					{
						OFFSET 3.362410 1.200890 -0.311210
						CHANNELS 3 Zrotation Yrotation Xrotation
						JOINT LeftForeArm
						{
							OFFSET 4.983000 -0.000000 -0.000000
							CHANNELS 3 Zrotation Yrotation Xrotation
							JOINT LeftHand
							{
								OFFSET 3.483560 -0.000000 -0.000000
								CHANNELS 3 Zrotation Yrotation Xrotation
								JOINT LeftFingerBase
								{
									OFFSET 0.000000 0.000000 0.000000
									CHANNELS 3 Zrotation Yrotation Xrotation
									JOINT LeftHandIndex1
									{
										OFFSET 0.715260 -0.000000 -0.000000
										CHANNELS 3 Zrotation Yrotation Xrotation
										End Site
										{
											OFFSET 0.000000 0.000000 0.000000
										}
									}
								}
								JOINT LThumb
								{
									OFFSET 0.000000 0.000000 0.000000
									CHANNELS 3 Zrotation Yrotation Xrotation
									End Site
									{
										OFFSET 0.000000 0.000000 0.000000
									}
								}
							}
						}
					}
				}
				JOINT RightShoulder
				{
					OFFSET 0.000000 0.000000 0.000000
					CHANNELS 3 Zrotation Yrotation Xrotation
					JOINT RightArm
					{
						OFFSET -3.136600 1.374050 -0.404650
						CHANNELS 3 Zrotation Yrotation Xrotation
						JOINT RightForeArm
						{
							OFFSET -5.241900 -0.000000 -0.000000
							CHANNELS 3 Zrotation Yrotation Xrotation
							JOINT RightHand
							{
								OFFSET -3.444170 -0.000000 -0.000000
								CHANNELS 3 Zrotation Yrotation Xrotation
								JOINT RightFingerBase
								{
									OFFSET 0.000000 0.000000 0.000000
									CHANNELS 3 Zrotation Yrotation Xrotation
									JOINT RightHandIndex1
									{
										OFFSET -0.622530 -0.000000 -0.000000
										CHANNELS 3 Zrotation Yrotation Xrotation
										End Site
										{
											OFFSET 0.000000 0.000000 0.000000
										}
									}
								}
								JOINT RThumb
								{
									OFFSET 0.000000 0.000000 0.000000
									CHANNELS 3 Zrotation Yrotation Xrotation
									End Site
									{
										OFFSET 0.000000 0.000000 0.000000
									}
								}
							}
						}
					}
				}
			}
		}
	}
}
MOTION
Frames: 12
Frame Time: 0.008333
0.046324 24.705525 -1.844402 2.069326 -3.317072 5.460570 -2.178910 5.604950 4.790893 -20.499106 -0.426953 2.254135 2.288631 7.197353 23.468546 1.715204 15.637251 39.619814 0.042100 -1.323500 -3.639500 -3.306689 -6.522937 2.215040 25.522115 9.555338 1.670092 -8.047673 -12.102545 42.626222 1.511143 -29.839260 34.572785 -0.221800 -3.031700 8.366900 4.598202 3.303155 -6.564062 -6.048168 2.419797 -7.245286 1.506049 1.983472 -3.359945 -5.739530 -1.533032 -14.216438 5.548849 -1.976890 13.116593 2.594400 -0.695600 4.611000 -5.830758 -3.327930 0.834926 -62.047400 -16.083743 8.462628 36.168946 -44.634764 -16.242941 -0.093569 -0.767456 6.616116 26.817154 16.907894 8.774800 -7.125000 0.000000 0.000000 -1.174900 49.732600 -0.137100 7.799027 3.788133 1.058415 56.267370 34.190648 29.445254 -23.345450 28.610727 -7.667597 0.298172 0.659149 17.828298 -19.403430 0.506004 0.090200 7.125000 0.000000 0.000000 5.588300 -30.225500 2.024000 
0.044690 24.857952 -1.648054 1.261437 -3.326022 6.054273 -2.110341 5.584323 4.675209 -19.776623 -0.952826 1.341958 2.087175 7.010295 22.843986 1.082956 16.062229 37.263931 0.164900 -2.616100 -7.211700 -3.190886 -6.501497 2.172297 26.363814 9.962163 1.274258 -7.706260 -11.785510 41.257400 1.850908 -30.141178 33.784752 -0.198300 -2.867900 7.911100 4.974511 3.230612 -6.941253 -5.091460 2.409305 -8.226632 1.098658 1.909014 -2.784037 -5.528617 -1.457910 -13.744865 5.339224 -1.887324 13.097336 2.527600 -0.659800 4.571300 -6.042448 -3.258129 0.883989 -62.731282 -13.995129 6.462226 34.135887 -43.185690 -14.714289 -0.112155 -0.769403 7.530069 25.944313 17.460479 8.701400 -7.125000 0.000000 0.000000 -2.144500 50.185900 -0.274200 7.837066 3.775976 1.144295 56.963972 32.788462 28.827410 -23.118247 28.370903 -7.530838 0.280674 0.588148 18.683640 -19.343720 1.633939 -0.334500 7.125000 0.000000 0.000000 5.570600 -28.954800 2.186800 
0.042576 24.992598 -1.462182 0.871036 -3.195906 6.339003 -2.101507 5.548804 4.597701 -19.342183 -1.419059 0.496072 1.942734 6.881279 22.498736 0.410903 16.330155 34.545547 0.412700 -4.123600 -11.424600 -3.141110 -6.497292 2.146199 26.808499 10.156474 1.101579 -7.322494 -11.426762 39.754494 2.304391 -30.468702 32.620494 -0.181000 -2.740400 7.556900 5.258755 3.160790 -7.020673 -4.870660 2.323524 -8.673246 0.938809 1.847137 -2.575865 -5.258347 -1.425555 -13.443469 5.241845 -1.876726 12.975254 2.475400 -0.655700 4.521900 -6.157475 -3.169246 0.894420 -63.325246 -12.119337 4.637059 32.057130 -41.599616 -13.197430 -0.142880 -0.769723 8.093138 25.718914 17.851036 8.799000 -7.125000 0.000000 0.000000 -2.430500 50.574200 -0.334000 7.930026 3.713977 1.167157 57.607381 31.352194 28.051524 -22.925872 28.191711 -7.405054 0.270756 0.573930 19.383518 -19.118317 1.759087 -0.379800 7.125000 0.000000 0.000000 5.748200 -28.804500 2.277800 
0.046612 25.114367 -1.279673 0.807654 -3.093427 6.390331 -2.133921 5.538122 4.595646 -19.208038 -1.856362 -0.247530 1.872365 6.810153 22.273070 -0.039577 16.910729 32.903055 0.523800 -4.638100 -12.879100 -3.095420 -6.519960 2.195015 26.781118 10.196341 0.954373 -6.919469 -11.048309 38.197134 2.602296 -30.405646 31.729442 -0.165500 -2.620800 7.224800 5.306345 3.141288 -7.307078 -4.827754 2.289598 -8.110489 0.948977 1.818231 -2.546129 -5.110156 -1.453042 -13.605407 5.146426 -1.909058 12.863211 2.435700 -0.672500 4.527400 -6.258383 -3.082217 0.837174 -64.027833 -10.599887 2.949041 29.999366 -39.896188 -11.735174 -0.184278 -0.769972 8.271489 25.963713 18.202089 9.068000 -7.125000 0.000000 0.000000 -2.225300 51.005700 -0.329400 8.028816 3.631159 1.099578 57.900717 30.064471 27.156638 -22.788671 28.085486 -7.298077 0.259818 0.630926 19.642178 -18.488396 0.740341 -0.007600 7.125000 0.000000 0.000000 6.329000 -29.925700 2.340600 
0.056607 25.227966 -1.105046 0.504793 -3.041543 6.360366 -2.151415 5.555715 4.618798 -18.813749 -2.281190 -0.994012 1.810234 6.761049 22.038851 -0.302010 17.433640 32.056575 0.512800 -4.590000 -12.742800 -3.035198 -6.541002 2.259471 26.984506 10.256218 0.865782 -6.544498 -10.662352 36.673457 2.861678 -30.428611 31.031402 -0.195700 -2.849000 7.858700 5.598951 3.074185 -7.374729 -4.542243 2.251122 -7.382190 0.737406 1.767132 -2.684245 -5.080278 -1.477945 -13.805338 5.198601 -1.933591 12.544297 2.433500 -0.679700 4.489000 -6.383650 -2.982629 0.762979 -64.590419 -9.123792 1.167733 27.951143 -38.084764 -10.338666 -0.225361 -0.776503 8.214890 26.028784 18.677741 9.327600 -7.125000 0.000000 0.000000 -2.228400 51.546800 -0.359500 8.114064 3.542943 1.018384 58.244321 28.944196 26.571384 -22.574214 27.877446 -7.142451 0.285101 0.651730 19.573682 -18.615785 0.157888 0.199300 7.125000 0.000000 0.000000 6.256700 -30.569500 2.216800 
0.065449 25.337048 -0.942720 0.153583 -3.024282 6.280107 -2.185746 5.560966 4.617733 -18.303347 -2.645321 -1.804610 1.745645 6.729739 21.868150 -0.491734 17.635933 31.311302 0.474400 -4.417400 -12.254100 -3.006182 -6.549480 2.286976 27.303363 10.442471 0.842309 -6.201570 -10.286662 35.213988 3.122853 -30.642035 30.447093 -0.237600 -3.136800 8.659800 6.080489 3.006523 -6.846798 -4.511911 2.217191 -6.967981 0.455957 1.737299 -3.144060 -5.116997 -1.532816 -14.075784 5.508908 -2.043308 12.434827 2.480800 -0.712000 4.486500 -6.460243 -2.849227 0.718392 -64.949097 -7.663181 -0.453221 25.879139 -36.148807 -8.997396 -0.265975 -0.796779 8.005172 25.942321 19.575602 9.719700 -7.125000 0.000000 0.000000 -2.496400 52.529000 -0.462800 8.235159 3.405796 0.956043 58.770139 27.693039 26.016253 -22.309215 27.638891 -6.965323 0.350691 0.625828 19.565998 -19.661726 0.160232 0.212000 7.125000 0.000000 0.000000 5.374600 -30.581800 1.900000 
0.070639 25.433925 -0.794041 -0.053337 -3.038224 6.060319 -2.224740 5.570390 4.617875 -17.898886 -2.925927 -2.559899 1.703491 6.717201 21.742332 -0.700819 18.038422 30.605632 0.350600 -3.804600 -10.527600 -2.985230 -6.550534 2.312393 27.473851 10.684583 0.836252 -5.877103 -9.927469 33.855896 3.374723 -30.761460 29.803999 -0.224300 -3.048400 8.413600 6.348669 2.941945 -5.973174 -4.542335 2.233919 -6.499350 0.291134 1.737567 -3.862318 -5.160968 -1.615584 -14.394865 5.744495 -2.180143 12.405760 2.516400 -0.761400 4.493600 -6.529958 -2.684409 0.671841 -65.331046 -6.246727 -1.793844 23.831052 -34.105344 -7.737197 -0.303621 -0.825372 7.598989 25.738558 20.449640 10.047400 -7.125000 0.000000 0.000000 -2.901900 53.465900 -0.604600 8.343212 3.223817 0.875920 59.227749 26.271559 25.383980 -22.143224 27.561741 -6.859148 0.414342 0.630060 19.376604 -20.592332 -0.128673 0.344600 7.125000 0.000000 0.000000 4.607500 -30.932600 1.588300 
0.070062 25.507543 -0.657761 -0.336523 -3.150933 5.648616 -2.225633 5.620435 4.674503 -17.407226 -3.101862 -3.176795 1.651000 6.677571 21.508838 -0.741049 18.279596 30.606087 0.277000 -3.385100 -9.352700 -2.933130 -6.546304 2.386943 27.722506 11.072231 0.946474 -5.572811 -9.577859 32.639852 3.755761 -30.895893 28.656678 -0.199000 -2.872600 7.924400 6.343345 2.850306 -5.044422 -4.114114 2.319432 -5.504256 0.151795 1.743376 -4.760894 -5.193625 -1.681235 -14.834873 5.812326 -2.252486 12.229841 2.526100 -0.788200 4.475100 -6.667458 -2.508930 0.583284 -65.679940 -4.959648 -2.932680 21.788722 -31.916528 -6.545114 -0.340415 -0.854473 7.086279 25.497835 21.046739 10.230100 -7.125000 0.000000 0.000000 -3.286300 54.092800 -0.735100 8.385621 3.037457 0.754751 59.469473 25.007497 24.994646 -21.922948 27.429235 -6.726591 0.463675 0.660206 18.746362 -21.072810 -0.651152 0.576100 7.125000 0.000000 0.000000 4.220600 -31.548500 1.391800 
0.069774 25.567322 -0.518597 -0.345787 -3.262384 5.125721 -2.288173 5.660782 4.767384 -17.135275 -3.364580 -3.570923 1.547943 6.561365 21.128815 -0.454473 17.516326 31.455908 0.331500 -3.700500 -10.235600 -2.931057 -6.554084 2.474651 27.747109 11.547390 1.088745 -5.297511 -9.263568 31.583960 3.986286 -30.657665 27.738795 -0.154300 -2.531200 6.976300 6.290800 2.775610 -4.190955 -4.256650 2.332773 -4.255703 0.236885 1.750388 -5.665225 -4.935785 -1.705204 -15.091311 5.760158 -2.293509 11.829816 2.488100 -0.806500 4.390800 -6.743702 -2.354004 0.472725 -65.874797 -3.742642 -3.774913 19.824042 -29.654200 -5.463297 -0.372151 -0.878944 6.520302 25.146578 21.372804 10.237100 -7.125000 0.000000 0.000000 -3.718300 54.397900 -0.859600 8.467775 2.868671 0.608145 59.662089 23.866050 24.916371 -21.511547 27.042067 -6.481116 0.506393 0.679429 17.979765 -21.299868 -1.056176 0.756300 7.125000 0.000000 0.000000 4.027300 -32.020300 1.282000 
0.070831 25.621911 -0.373570 -0.139437 -3.338447 4.643709 -2.383824 5.685239 4.847612 -17.055602 -3.653983 -3.921202 1.433306 6.413962 20.677060 -0.183253 16.775971 32.263553 0.356900 -3.837900 -10.621100 -2.950059 -6.564460 2.554817 27.535717 12.103300 1.170062 -5.034188 -8.971041 30.609840 4.078068 -30.095364 27.052578 -0.127200 -2.299400 6.333800 6.172151 2.728423 -3.408991 -4.679023 2.335493 -3.083474 0.399330 1.770588 -6.509212 -5.036817 -1.740954 -15.334075 6.180549 -2.380336 11.556958 2.581300 -0.830500 4.342300 -6.753842 -2.215545 0.374985 -66.067413 -2.558309 -4.400467 17.955394 -27.361720 -4.503130 -0.387492 -0.913096 6.104961 24.148821 22.075870 10.094700 -7.125000 0.000000 0.000000 -4.984200 54.973100 -1.223000 8.592559 2.680341 0.454143 59.836518 22.585600 24.870856 -21.092114 26.650151 -6.245754 0.529981 0.689668 17.521381 -21.244617 -1.231328 0.830100 7.125000 0.000000 0.000000 4.062100 -32.223300 1.273200 
0.072465 25.665448 -0.230274 -0.105037 -3.382371 4.172891 -2.440068 5.732470 4.940287 -16.812599 -3.884879 -4.294044 1.327543 6.270942 20.192696 -0.029581 16.494227 32.833069 0.310800 -3.584000 -9.909100 -2.934081 -6.574486 2.656321 27.437933 12.667340 1.235108 -4.796108 -8.692035 29.695176 4.013106 -29.326586 26.820688 -0.109800 -2.136200 5.882200 6.076724 2.682240 -2.715098 -4.706426 2.389665 -1.746901 0.418433 1.790369 -7.335738 -5.311279 -1.863875 -15.725658 6.522745 -2.537424 11.366798 2.668900 -0.894500 4.333200 -6.805638 -2.076973 0.269298 -66.275666 -1.527076 -4.883727 16.114269 -24.964163 -3.626999 -0.401377 -0.952088 6.226561 22.910871 23.205565 9.979400 -7.125000 0.000000 0.000000 -6.711400 55.937800 -1.806700 8.674426 2.500175 0.294593 59.918855 21.364517 24.733785 -20.635618 26.202207 -5.989533 0.559353 0.679142 17.360344 -21.344876 -1.242996 0.839600 7.125000 0.000000 0.000000 3.955100 -32.236500 1.238300 
0.077751 25.699470 -0.088035 -0.227162 -3.330168 3.886701 -2.483477 5.768204 5.007900 -16.413671 -4.164407 -4.846271 1.219772 6.146223 19.755313 0.216885 15.971262 33.652733 0.319400 -3.633100 -10.046600 -2.900261 -6.582096 2.747062 27.456715 13.164991 1.039604 -4.581543 -8.427317 28.798250 3.699927 -28.294922 27.412004 -0.055200 -1.516300 4.170500 6.137664 2.606286 -2.150034 -4.620631 2.397901 -0.633413 0.355758 1.777075 -7.993455 -5.303935 -1.970392 -15.948768 6.455179 -2.649315 11.109297 2.644500 -0.954300 4.290900 -6.887079 -1.939954 0.176471 -66.482796 -0.477375 -5.015013 14.366465 -22.550225 -2.862632 -0.433486 -0.973455 6.635500 22.343011 23.926976 9.996500 -7.125000 0.000000 0.000000 -7.595500 56.591500 -2.167000 8.728647 2.356602 0.161282 59.987460 20.199141 24.744301 -20.137910 25.676431 -5.714774 0.588743 0.648328 17.401021 -21.482108 -1.044460 0.759000 7.125000 0.000000 0.000000 3.802900 -32.004300 1.211700 
